/* XPM */
static char * icewm_xpm[] = {
"35 15 3 1",
" 	c #353535",
".	c #159E5F",
"+	c #383735",
"                                   ",
"                                   ",
"                                   ",
"              .....                ",
"             ..   ...              ",
"             .      ..             ",
"             .  ...  .             ",
"             .  .+.  .             ",
"            ..  ...  .             ",
"            .    .  ..             ",
"            .      ..              ",
"            ........               ",
"                                   ",
"                                   ",
"                                   "};
