/* XPM */
static char * maximizeI_xpm[] = {
"20 42 6 1",
" 	c #353535",
".	c #BBBBBB",
"+	c #BCBCBC",
"@	c #BFBFBF",
"#	c #C0C0C0",
"$	c #000000",
"                    ",
"           .+@+#@   ",
"           ######   ",
"             ####   ",
"            #####   ",
"   ###@@+##### ##   ",
"   ##########  ##   ",
"   ##      ##       ",
"   ##      ##       ",
"   ##      ##       ",
"   ##      ##       ",
"   ##      ##       ",
"   ##      ##       ",
"   ##########       ",
"   @#########       ",
"                    ",
"                    ",
"                    ",
"                    ",
"                    ",
"                    ",
"                    ",
"           $$$$$$   ",
"           $$$$$$   ",
"             $$$$   ",
"            $$$$$   ",
"   $$$$$$$$$$$ $$   ",
"   $$$$$$$$$$  $$   ",
"   $$      $$       ",
"   $$      $$       ",
"   $$      $$       ",
"   $$      $$       ",
"   $$      $$       ",
"   $$      $$       ",
"   $$$$$$$$$$       ",
"   $$$$$$$$$$       ",
"                    ",
"                    ",
"                    ",
"                    ",
"                    ",
"                    "};
