/* XPM */
static char * menuButtonA_xpm[] = {
"23 42 2 1",
" 	c #353535",
".	c #323232",
"                       ",
"                       ",
"                       ",
"                       ",
"                       ",
"                       ",
"                       ",
"                       ",
"                       ",
"                       ",
"                       ",
"                       ",
"                       ",
"                       ",
"                       ",
"                       ",
"                       ",
"                       ",
"                       ",
"                       ",
"                       ",
"                       ",
"                       ",
"  ................     ",
"  ................     ",
"  ................     ",
"  ................     ",
"  ................     ",
"  ................     ",
"  ................     ",
"  ................     ",
"  ................     ",
"  ................     ",
"  ................     ",
"  ................     ",
"  ................     ",
"  ................     ",
"  ................     ",
"  ................     ",
"                       ",
"                       ",
"                       "};
