/* XPM */
static char * minimizeI_xpm[] = {
"20 42 3 1",
" 	c #353535",
".	c #C0C0C0",
"+	c #000000",
"                    ",
"                    ",
"               ..   ",
"           .  ..    ",
"           . ..     ",
"           ...      ",
"           ...      ",
"           .....    ",
"    .......         ",
"    .......         ",
"    ..   ..         ",
"    ..   ..         ",
"    ..   ..         ",
"    .......         ",
"    .......         ",
"                    ",
"                    ",
"                    ",
"                    ",
"                    ",
"                    ",
"                    ",
"               +    ",
"          ++  +++   ",
"          ++ +++    ",
"          +++++     ",
"          ++++      ",
"          ++++++    ",
"          ++++++    ",
"   +++++++          ",
"   +++++++          ",
"   ++   ++          ",
"   ++   ++          ",
"   ++   ++          ",
"   +++++++          ",
"   +++++++          ",
"                    ",
"                    ",
"                    ",
"                    ",
"                    ",
"                    "};
