/* XPM */
static char * restoreA_xpm[] = {
"20 42 3 1",
" 	c #353535",
".	c #159E5F",
"+	c #C0C0C0",
"                    ",
"                    ",
"               .    ",
"          ..  ...   ",
"          .. ...    ",
"          .....     ",
"   ...... ....      ",
"   ...... ......    ",
"   ..     ......    ",
"   ..               ",
"   ..       ..      ",
"   ..       ..      ",
"   ..       ..      ",
"   ..       ..      ",
"   ...........      ",
"   ...........      ",
"                    ",
"                    ",
"                    ",
"                    ",
"                    ",
"                    ",
"               +    ",
"          ++  +++   ",
"          ++ +++    ",
"          +++++     ",
"   ++++++ ++++      ",
"   ++++++ ++++++    ",
"   ++     ++++++    ",
"   ++               ",
"   ++      ++       ",
"   ++      ++       ",
"   ++      ++       ",
"   ++      ++       ",
"   ++++++++++       ",
"   ++++++++++       ",
"                    ",
"                    ",
"                    ",
"                    ",
"                    ",
"                    "};
